<svg xmlns="http://www.w3.org/2000/svg" viewBox="0 0 1398 738.5"><defs><style>.cls-1,.cls-2{fill:#ff3b3d;}.cls-2{opacity:0.5;}</style></defs><g id="Bocetos"><path class="cls-1" d="M1150.55,15.18a4,4,0,0,0,2.7,4.89l11.38,3.28-3.28,11.38a3.95,3.95,0,0,0,7.59,2.19l3.28-11.39,11.39,3.28a3.95,3.95,0,0,0,2.18-7.59l-11.38-3.28,3.28-11.38a3.93,3.93,0,0,0-.34-3,3.94,3.94,0,0,0-7.25.82l-3.28,11.38-11.38-3.28a3.95,3.95,0,0,0-4.89,2.7Z"/><path class="cls-1" d="M545.5,58.31a5.9,5.9,0,0,0,7,4.6l17.34-3.55,3.55,17.35a5.9,5.9,0,1,0,11.56-2.37L581.37,57l17.34-3.54a5.9,5.9,0,0,0-2.36-11.56L579,45.44,575.46,28.1a5.9,5.9,0,0,0-11.56,2.36l3.54,17.34L550.1,51.35a5.89,5.89,0,0,0-4.6,7Z"/><path class="cls-1" d="M220.21,474.16a2.88,2.88,0,0,0,3.4,2.24l8.47-1.73,1.72,8.47A2.88,2.88,0,0,0,235,485a2.84,2.84,0,0,0,2.16.42,2.89,2.89,0,0,0,2.25-3.4l-1.73-8.46,8.46-1.73a2.88,2.88,0,0,0,2.25-3.4,2.89,2.89,0,0,0-3.4-2.24l-8.46,1.73-1.73-8.47a2.89,2.89,0,0,0-3.4-2.24,2.88,2.88,0,0,0-2.25,3.4l1.73,8.46-8.46,1.73a2.9,2.9,0,0,0-1.83,1.23A3,3,0,0,0,220.21,474.16Z"/><path class="cls-1" d="M268,278.39c-2.18,4.8-.53,10.23,3.68,12.14l22.86,10.36-11.8,26a10.2,10.2,0,0,0-.55,7.16,7.87,7.87,0,0,0,4.23,5c4.21,1.91,9.39-.44,11.56-5.23l11.8-26,22.86,10.36a7.86,7.86,0,0,0,6.54-.11,10.5,10.5,0,0,0,5.56-12.28,7.87,7.87,0,0,0-4.23-5l-22.86-10.36,11.8-26.05a10.28,10.28,0,0,0,.55-7.15,7.67,7.67,0,0,0-10.78-4.88,10.19,10.19,0,0,0-5,5.13l-11.8,26-22.86-10.36a7.9,7.9,0,0,0-6.54.1A10.23,10.23,0,0,0,268,278.39Z"/><path class="cls-1" d="M929,12.5a2.5,2.5,0,0,0,2.5,2.5H939v7.5a2.5,2.5,0,0,0,5,0V15h7.5a2.5,2.5,0,1,0,0-5H944V2.5a2.5,2.5,0,1,0-5,0V10h-7.5a2.49,2.49,0,0,0-2.5,2.5Z"/><path class="cls-1" d="M778.06,129.51a5.83,5.83,0,0,0,7.65,3.1l16.13-6.82,6.82,16.13a5.84,5.84,0,1,0,10.75-4.55l-6.82-16.13,16.13-6.82a5.84,5.84,0,0,0-4.55-10.75L808,110.49l-6.82-16.13a5.84,5.84,0,0,0-10.75,4.55L797.29,115l-16.13,6.82a5.82,5.82,0,0,0-3.1,7.65Z"/><path class="cls-1" d="M470,328.66a2.88,2.88,0,0,0,1.28,3.89l7.77,3.92-3.92,7.78a2.89,2.89,0,0,0-.16,2.21,2.85,2.85,0,0,0,1.45,1.68,2.88,2.88,0,0,0,3.89-1.28l3.92-7.77L492,343a2.9,2.9,0,1,0,2.61-5.18l-7.77-3.92,3.92-7.78a2.89,2.89,0,0,0,.16-2.21,2.85,2.85,0,0,0-1.45-1.68,2.9,2.9,0,0,0-3.9,1.28l-3.92,7.77-7.77-3.92a2.89,2.89,0,0,0-2.21-.16A2.85,2.85,0,0,0,470,328.66Z"/><path class="cls-2" d="M1398,254V738.5H0c81.29-5.16,192.35-21,307.52-64.3,81.4-30.58,164.86-74.84,241.32-138.67q3.4-2.84,6.79-5.73c12.74-10.9,26-21.37,39.7-31.42,12.89-9.47,26.19-18.58,39.78-27.34C730.43,409.7,842,365.44,950,333.59,1182.41,265,1398,254,1398,254Z"/><path class="cls-2" d="M1398,95V738.5H272c10.77-21.61,22.57-43.1,35.52-64.3A780.25,780.25,0,0,1,353.45,607c79.43-103.93,139.46-98.64,195.39-71.49,68.28,33.14,130.44,98.89,214.28,38.28,29.57-21.36,61.84-58.46,98-118.25a860.14,860.14,0,0,1,88.82-122,742.79,742.79,0,0,1,135.37-121.52C1218.19,119.86,1344.8,99.46,1398,95Z"/><path class="cls-2" d="M1398,226.62V738.5H769.4a423.39,423.39,0,0,1-30.39-158C739,346.05,929.06,156,1163.49,156A422.38,422.38,0,0,1,1398,226.62Z"/></g></svg>