<svg xmlns="http://www.w3.org/2000/svg" viewBox="0 0 1197.63 707.33"><defs><style>.cls-1,.cls-2{fill:#cceaf4;}.cls-1{opacity:0.5;}</style></defs><g id="Bocetos"><path class="cls-1" d="M708.91,707.33H0V89.61C136.23,126.86,495.81,257.36,675.27,629Q693.38,666.53,708.91,707.33Z"/><path class="cls-1" d="M579.2,707.33H0V202.4S191.55,227,316.07,428.59q8.44,13.7,16.48,28.49,8.51,15.72,16.45,32.75C426,655.39,521,698,579.2,707.33Z"/><path class="cls-1" d="M1197.63,707.33H0V401.43c56.58,2.12,191.25,11.82,332.55,55.65,81.89,25.4,166,62.26,238.45,115.75,38.49,28.42,72.82,46.06,104.27,56.21,162.22,52.41,248.11-93.93,435.73,15.79C1145.3,664.89,1173.86,686,1197.63,707.33Z"/><path class="cls-2" d="M198.53,26a7.5,7.5,0,0,1-5.13,9.28l-21.62,6.23L178,63.08a7.5,7.5,0,1,1-14.41,4.15l-6.23-21.62-21.62,6.23a7.5,7.5,0,1,1-4.15-14.41l21.62-6.23L147,9.58a7.45,7.45,0,0,1,.64-5.71A7.5,7.5,0,0,1,161.4,5.42l6.23,21.63,21.62-6.23A7.49,7.49,0,0,1,198.53,26Z"/><path class="cls-2" d="M770.5,383.14a5.9,5.9,0,0,1-7,4.6l-17.34-3.55-3.55,17.35a5.9,5.9,0,0,1-11.56-2.37l3.54-17.34-17.34-3.54a5.9,5.9,0,0,1-2.07-10.7,5.83,5.83,0,0,1,4.43-.86L737,370.27l3.54-17.34a5.9,5.9,0,0,1,11.56,2.36l-3.54,17.34,17.34,3.54a5.91,5.91,0,0,1,4.6,7Z"/><path class="cls-2" d="M768.79,560a2.88,2.88,0,0,1-3.4,2.25l-8.47-1.73L755.2,569a2.88,2.88,0,0,1-1.24,1.83,2.84,2.84,0,0,1-2.16.42,2.89,2.89,0,0,1-2.25-3.4l1.73-8.46-8.46-1.73a2.88,2.88,0,0,1-2.25-3.4A2.89,2.89,0,0,1,744,552l8.46,1.73,1.73-8.47a2.89,2.89,0,0,1,3.4-2.24,2.88,2.88,0,0,1,2.25,3.4l-1.73,8.46,8.46,1.73a2.9,2.9,0,0,1,1.83,1.23A3,3,0,0,1,768.79,560Z"/><path class="cls-2" d="M1179.79,486a2.88,2.88,0,0,1-3.4,2.25l-8.47-1.73L1166.2,495a2.88,2.88,0,0,1-1.24,1.83,2.84,2.84,0,0,1-2.16.42,2.89,2.89,0,0,1-2.25-3.4l1.73-8.46-8.46-1.73a2.88,2.88,0,0,1-2.25-3.4A2.89,2.89,0,0,1,1155,478l8.46,1.73,1.73-8.47a2.89,2.89,0,0,1,3.4-2.24,2.88,2.88,0,0,1,2.25,3.4l-1.73,8.46,8.46,1.73a2.9,2.9,0,0,1,1.83,1.23A3,3,0,0,1,1179.79,486Z"/><path class="cls-2" d="M1191.79,587.16a2.87,2.87,0,0,1-1.43,3.81l-7.87,3.57,3.57,7.87a2.88,2.88,0,1,1-5.25,2.37l-3.56-7.87-7.87,3.57a2.88,2.88,0,0,1-2.21.07,2.82,2.82,0,0,1-1.6-1.51,2.85,2.85,0,0,1-.08-2.2,2.9,2.9,0,0,1,1.51-1.61l7.87-3.56-3.57-7.87a2.9,2.9,0,0,1-.07-2.2,2.88,2.88,0,0,1,5.32-.18l3.56,7.87,7.87-3.56a2.88,2.88,0,0,1,3.81,1.43Z"/><path class="cls-2" d="M1115.5,577.84a1.41,1.41,0,0,1-.7,1.88l-3.88,1.76,1.76,3.87a1.42,1.42,0,0,1,0,1.09,1.4,1.4,0,0,1-.74.79,1.42,1.42,0,0,1-1.88-.71l-1.76-3.87-3.87,1.75a1.38,1.38,0,0,1-1.09,0,1.43,1.43,0,0,1-.79-.74,1.47,1.47,0,0,1,0-1.09,1.41,1.41,0,0,1,.75-.79l3.87-1.76-1.75-3.87A1.42,1.42,0,1,1,1108,575l1.76,3.88,3.87-1.76a1.43,1.43,0,0,1,1.88.71Z"/><path class="cls-2" d="M382,151.33a2.5,2.5,0,0,1-2.5,2.5H372v7.5a2.5,2.5,0,1,1-5,0v-7.5h-7.5a2.5,2.5,0,1,1,0-5H367v-7.5a2.5,2.5,0,1,1,5,0v7.5h7.5a2.49,2.49,0,0,1,2.5,2.5Z"/><path class="cls-2" d="M554.94,139.34a5.83,5.83,0,0,1-7.65,3.1l-16.13-6.82-6.82,16.13a5.84,5.84,0,1,1-10.75-4.55l6.82-16.13-16.13-6.82a5.84,5.84,0,1,1,4.55-10.75L525,120.32l6.82-16.13a5.84,5.84,0,0,1,10.75,4.55l-6.82,16.13,16.13,6.82a5.82,5.82,0,0,1,3.1,7.65Z"/><path class="cls-2" d="M578,302.49a2.88,2.88,0,0,1-1.28,3.89l-7.77,3.92,3.92,7.78a2.9,2.9,0,0,1-5.18,2.61l-3.92-7.77L556,316.84a2.91,2.91,0,0,1-4.06-3.5,2.94,2.94,0,0,1,1.45-1.69l7.77-3.92L557.22,300a2.9,2.9,0,0,1,5.19-2.61l3.92,7.77,7.77-3.92a2.89,2.89,0,0,1,2.21-.16A2.85,2.85,0,0,1,578,302.49Z"/></g></svg>