<svg xmlns="http://www.w3.org/2000/svg" viewBox="0 0 741 876.03"><defs><style>.cls-1{fill:#ff3b3d;}</style></defs><g id="Bocetos"><polygon class="cls-1" points="741 62.95 741 690.41 631.97 753.36 631.97 502.58 632.87 502.07 632.42 501.81 631.97 501.55 631.97 499.6 629.83 500.84 629.38 501.1 524.3 561.76 524.3 561.78 524.28 561.78 522.93 560.99 522.93 690.41 524.3 691.2 524.3 813.07 415.26 876.02 415.26 625.25 416.16 624.73 415.71 624.47 415.26 624.21 415.26 499.86 416.16 499.34 415.71 499.08 415.26 498.82 415.26 374.47 416.16 373.95 415.71 373.69 415.26 373.44 415.26 248.56 415.71 248.31 415.26 248.05 414.81 248.31 306.23 185.87 306.23 185.61 415.26 122.66 522.93 184.82 522.93 439.63 524.3 440.42 524.3 438.32 631.07 376.68 631.97 377.2 632.87 376.68 632.42 376.42 631.97 376.16 631.97 251.81 632.87 251.29 632.42 251.03 631.97 250.77 631.97 125.9 632.42 125.64 631.97 125.38 631.52 125.64 522.93 63.21 522.93 62.95 631.97 0 741 62.95"/><circle class="cls-1" cx="264.59" cy="335.75" r="37.8"/><path class="cls-1" d="M302.38,487a37.8,37.8,0,0,1-37.79,37.8H37.8a37.8,37.8,0,0,1,0-75.6H264.59A37.79,37.79,0,0,1,302.38,487Z"/><path class="cls-1" d="M302.38,637.65a37.79,37.79,0,0,1-37.79,37.8H189a37.8,37.8,0,1,1,0-75.59h75.6A37.78,37.78,0,0,1,302.38,637.65Z"/><circle class="cls-1" cx="37.8" cy="637.65" r="37.8"/><path class="cls-1" d="M302.38,788.85a37.79,37.79,0,0,1-37.79,37.8H37.8a37.8,37.8,0,1,1,0-75.6H264.59A37.79,37.79,0,0,1,302.38,788.85Z"/></g></svg>